<?xml version="1.0" encoding="utf-8"?>
<!-- Generator: Adobe Illustrator 25.4.1, SVG Export Plug-In . SVG Version: 6.00 Build 0)  -->
<svg version="1.1" id="Layer_1" xmlns="http://www.w3.org/2000/svg" xmlns:xlink="http://www.w3.org/1999/xlink" x="0px" y="0px"
	 viewBox="0 0 102 102" style="enable-background:new 0 0 102 102;" xml:space="preserve">
<style type="text/css">
	.st0{fill:#302D3D;}
	.st1{fill:#F3F5FE;}
	.st2{fill:#BCC8FE;}
	.st3{fill:#DAEBFE;}
	.st4{fill:#FEFEFE;}
	.st5{fill:#619EFE;}
	.st6{fill:#FE575A;}
	.st7{fill:#75C1FE;}
	.st8{fill:#617BE5;}
	.st9{fill:#FE8D86;}
	.st10{fill:#617CE5;}
	.st11{fill:#C72A41;}
	.st12{fill:#5955A0;}
	.st13{fill:#FDAA57;}
	.st14{fill:#454678;}
	.st15{fill:#454679;}
	.st16{fill:#312E3E;}
	.st17{fill:#302E3F;}
	.st18{fill:#302D3E;}
</style>
<g>
	<path class="st0" d="M0.8,20.5c1-2.1,2.4-3.6,4.8-4c0.5-0.1,1.1-0.1,1.7-0.1c11.5,0,23.1,0,34.6,0c0.7,0,1.1-0.2,1.4-0.9
		c1.3-3,2.9-5.9,4.7-8.8c1.6-2.5,4.6-2.6,6.2-0.1c1.8,2.8,3.4,5.8,4.7,8.8c0.3,0.6,0.6,0.9,1.3,0.8c11.7,0,23.4,0,35.1,0
		c3.1,0,5.4,1.7,6.2,4.5c0.2,0.7,0.2,1.4,0.2,2.1c0,22.5,0,45,0,67.5c0,4.3-2.4,6.7-6.7,6.7c-29.1,0-58.2,0-87.3,0
		c-3.3,0-5.6-1.1-7-4.2C0.8,68.8,0.8,44.7,0.8,20.5z"/>
	<path class="st1" d="M72.2,81.6c-1.7,0.3-3.2,0.8-4.5,1.8c-0.6,0.4-0.9,0.9-0.5,1.6c0.5,0.7,1.1,0.6,1.7,0.1
		c4.1-2.9,9.2-1.4,11,3.3c0.3,0.7,0.6,1,1.3,0.8c0.7-0.2,0.8-0.8,0.6-1.4c-0.3-1.1-0.9-2.2-1.8-3c-0.3-0.3-0.3-0.5,0-0.8
		c3.1-2.8,9.4-1.9,11.7,1.6c-0.2,0.2-0.5,0.2-0.7,0.3c-1.6,0.5-3,1.3-4.2,2.4c-0.5,0.5-0.7,1.1-0.2,1.6c0.5,0.5,1.1,0.4,1.6-0.1
		c1.1-1,2.4-1.8,3.8-2.1c2.4-0.6,4.7-0.2,6.8,1.1c0.4,0.3,0.6,0.5,0.6,1c0,0.4,0,0.8,0,1.2c-0.1,2.3-1.7,3.8-4,3.8
		c-7.1,0-14.1,0-21.2,0c-22.3,0-44.6,0-66.9,0c-2.7,0-4.7-1.6-4.6-4.6c0.1-6.6,0-13.2,0-19.7c0-0.3,0-0.5,0-0.8
		c1.5,0.1,3.5,2.5,3.6,4.3c0.1,1.6-0.1,3.1-1.1,4.5c-0.4,0.6-0.7,1.2,0,1.7c0.7,0.5,1.3,0.1,1.8-0.5c0.6-0.8,1.1-1.6,1.2-2.5
		c0.1-0.9,0.6-0.8,1.2-0.7c3.3,0.6,6,3.2,6.8,6.5c0.1,0.5,0.3,1.1,0.2,1.8c-0.9-0.7-1.7-1.4-2.7-1.8c-0.7-0.3-1.3-0.4-1.7,0.3
		c-0.4,0.7,0,1.3,0.7,1.6c2.5,1.3,4.1,3.3,4.7,6c0.2,0.7,0.6,1,1.3,0.9c0.7-0.1,0.8-0.7,0.8-1.3c-0.1-1-0.5-1.8-0.9-2.7
		c-0.5-1,0.1-2,0-3.1c0-0.5,0.6-0.8,1.1-1.1c5.4-3.6,12.8,0,13.3,6.5c0,0.1,0,0.3,0,0.4c0,0.7,0.4,1.2,1.2,1.1c0.8-0.1,1-0.6,1-1.2
		c-0.2-3.7-1.8-6.6-4.9-8.7c-1-0.7-1.1-0.7-0.3-1.7c2.1-2.9,5.7-4.2,9.1-3.3c3.5,1,6,4.1,6.2,7.6c0,0.1,0,0.2,0,0.3
		c0,0.8,0.3,1.3,1.1,1.3c0.8,0,1-0.7,1-1.4c-0.1-1.7-0.4-3.3-1.3-4.7c-0.5-0.8-0.7-1.6-0.6-2.5c0-0.3,0-0.5,0-0.8
		c0-0.8-0.3-1.9,0.1-2.4c0.5-0.5,1.6-0.1,2.4-0.2c0.7-0.1,0.8,0.2,0.8,0.8c0,1.5,0,3,0,4.5c0,0.8,0.1,1.4,1.1,1.4
		c0.9,0,1.1-0.7,1.1-1.4c0-1.5,0-3,0-4.5c0-0.6,0.1-0.9,0.8-0.8c1.6,0.1,3.2,0,4.8,0c0.6,0,0.7,0.2,0.7,0.7c0,0.9,0,1.8,0,2.7
		c0,0.6-0.1,1.2,0.6,1.5c0.7,0.3,1.1-0.1,1.6-0.5c2.9-2.3,6-2.6,9.3-1C70.2,78.4,71.4,79.8,72.2,81.6z"/>
	<path class="st2" d="M82.3,76.4c0.7-1,0.9-2,0.6-3.2c-0.8-4.2-1.6-8.5-3.4-12.5c-0.4-0.8-0.8-1.6-1.2-2.5c0.4-0.4,0.9-0.3,1.4-0.3
		c2.1,0,4.2,0,6.3,0c2.6,0,4.2-1.4,4.7-4c0.1-0.6,0.1-1.2,0.1-1.9c0-6.5,0-13,0-19.5c0-0.5-0.1-1.1,0.3-1.6c2.6,0,5.1,0,7.7-0.1
		c0.4,0,0.6,0.2,0.6,0.6c0,0.2,0,0.3,0,0.5c0,17.9,0,35.8,0,53.7c0,0.3,0,0.6,0,1c-1.6-0.8-3.1-1.3-4.8-1.3c-0.3,0-0.4-0.2-0.5-0.4
		c-2.9-4.2-6.9-5.5-11.8-4.4C81.8,79.1,81.8,77.8,82.3,76.4z"/>
	<path class="st2" d="M20.5,80.9c-0.7,0.4-1.4,0.8-2.2,1.1c-0.2-0.1-0.2-0.3-0.2-0.4c-1.5-4.1-4.4-6.4-8.6-7.2
		c-0.6-0.1-0.8-0.4-1-0.9c-0.6-2.8-2.3-4.8-5-5.9c-0.6-0.2-0.6-0.5-0.6-1c0-4,0-8,0-12c0-7.6,0-15.1,0-22.7c0-0.7,0.2-1,1-1
		C6.4,31,9,31,11.5,31c0.4,0.5,0.3,1.1,0.3,1.6c0,6.5,0,13,0,19.5c0,1.2,0.1,2.4,0.7,3.4c0.8,1.5,2.1,2.4,3.9,2.4c2.1,0,4.2,0,6.3,0
		c0.5,0,1-0.1,1.4,0.3c-2.7,4.8-3.8,10-4.7,15.3c-0.3,1.4,0.2,2.5,1.2,3.4C21,78.3,21.1,79.6,20.5,80.9z"/>
	<path class="st3" d="M91.2,31c0,7.3,0,14.6,0,21.8c0,1.2-0.2,2.3-0.9,3.3c-1,1.4-2.3,2.1-4,2.1c-2.7,0-5.3,0-8,0
		c-0.7-1.2-1.4-2.3-2.2-3.5c-0.2-0.5-0.3-1.1-0.3-1.6c0-6.9,0-13.8,0-20.6c0-0.5-0.1-1.1,0.3-1.5C81.2,30.9,86.2,30.9,91.2,31z"/>
	<path class="st3" d="M24.1,58.2c-2.6,0-5.3,0-7.9,0c-2.2,0-4.2-1.8-4.5-4c-0.2-1-0.2-2-0.2-3c0-6.7,0-13.5,0-20.2
		c5-0.1,10-0.1,15,0c0.3,0.4,0.3,0.8,0.3,1.3c0,6.9,0,13.7,0,20.6c0,0.5-0.1,0.9-0.2,1.4C25.8,55.6,24.9,56.9,24.1,58.2z"/>
	<path class="st3" d="M58.6,30.4c0.7-0.3,1.5-0.5,2.2-0.8c0.6-0.2,0.8-0.2,0.9,0.5c0.7,2.9,1.2,5.8,1.4,8.7
		c0.6,6.4,0.4,12.9,0.4,19.3c0,1.8-1,2.8-2.8,2.8c-6.4,0-12.7,0-19.1,0c-1.8,0-2.9-1.1-2.9-2.9c0-6.2-0.2-12.5,0.4-18.7
		c0.3-3.1,0.8-6.3,1.5-9.3c0.1-0.4,0.1-0.7,0.7-0.5c1,0.4,2.1,0.7,3.2,1.1c-0.5,1.2-0.6,2.6-0.7,3.8c-0.2,2.5-0.5,4.9-0.5,7.4
		c0,1.2-0.4,2.5-0.1,3.7c-0.1,1.3-0.1,2.5,0,3.8c-0.1,2-0.1,4,0,6c0.1,1.6,1.3,2.7,3,2.7c3.5,0.1,7,0.1,10.4,0c1.7,0,2.9-1.2,2.9-3
		c0-4.6,0.1-9.3,0-13.9c-0.1-3.2-0.4-6.4-0.9-9.6C58.6,31.2,58.5,30.8,58.6,30.4z"/>
	<path class="st4" d="M43,45.6c-0.3-0.7-0.2-1.4-0.1-2.1c0.3-2.1,0.1-4.3,0.3-6.4c0.3-1.9,0.4-3.9,0.6-5.8c0-0.4,0.3-0.6,0.6-0.6
		c1.4,0.2,2.8,0.5,4.2,0.6c3.4,0.3,6.7-0.1,9.9-0.8c0.5,1.1,0.5,2.3,0.6,3.4c0.9,7.1,0.6,14.2,0.6,21.3c0,2-1.3,3.3-3.3,3.3
		c-3.4,0-6.8,0-10.1,0c-1.8,0-3.1-0.8-3.4-2.6c-0.3-2.1-0.3-4.3,0-6.4c0.4,0.2,0.4,0.5,0.6,0.9c1.6,4.1,5.9,6.2,10.1,4.9
		c3.9-1.2,6.3-5.6,5.2-9.7c-0.8-2.9-2.8-4.9-5.7-5.7c-2.9-0.8-5.4,0-7.5,2c-0.9,0.9-1.6,1.8-2.1,3C43.4,45,43.3,45.4,43,45.6z"/>
	<path class="st4" d="M76.2,31c0,7.9,0,15.8,0,23.8C73.5,51,70,48,66.5,45c-0.7-0.5-0.9-1.1-1-2c-0.1-3.7-0.6-7.5-1.4-11.1
		c-0.1-0.7-0.2-1,0.7-1C68.6,31,72.4,31,76.2,31z"/>
	<path class="st4" d="M26.6,54.3c-0.3-0.4-0.1-0.8-0.1-1.1c0-7.4,0-14.8,0-22.1c3.7,0,7.5,0,11.2-0.1c0.4,0,0.6,0.1,0.5,0.6
		c-0.8,4.1-1.4,8.2-1.4,12.4c0,0.5-0.4,0.7-0.6,0.9c-2.8,2.6-5.8,4.9-8.2,7.9C27.4,53.2,27,53.7,26.6,54.3z"/>
	<path class="st5" d="M74.2,18.6c5.2,0,10.4,0,15.6,0c0.9,0.5,1.1,1.4,1.4,2.3c0.4,1.4,0.3,2.8,0.3,4.2c0,0.9,0,1.8,0,2.7
		c0,0.4,0,0.8-0.3,1.1c-5,0-10,0-15,0c-0.3-0.3-0.3-0.8-0.3-1.2c0-1.3,0-2.6,0-3.9c0-1.6-0.3-3-1.4-4.3
		C74.3,19.1,74.1,18.9,74.2,18.6z"/>
	<path class="st6" d="M32.4,67.1c-3,2.6-6,5.3-9,7.9c-0.5,0.4-1,0.6-1.5,0.3c-0.6-0.3-0.7-0.9-0.6-1.5c1-6.8,2.9-13.3,7.3-18.8
		c1.2-1.5,2.3-2.9,3.8-4.1c0.3,0.3,0.3,0.8,0.3,1.2c0,4.5,0,9.1,0,13.6C32.7,66.2,32.7,66.7,32.4,67.1z"/>
	<path class="st7" d="M74.2,18.6c1.6,1.5,2.1,3.4,2,5.6c-0.1,1.5,0,3.1,0,4.6c-4,0-8,0-12,0c-0.5,0-0.7-0.2-0.8-0.6
		c-0.7-3.1-1.7-6.1-2.8-9c-0.2-0.6-0.1-0.7,0.5-0.7C65.4,18.5,69.8,18.6,74.2,18.6z"/>
	<path class="st6" d="M70.1,51.1c2.7,2.3,4.7,5.2,6.5,8.2c2.3,4.1,3.4,8.6,4.2,13.1c0.1,0.5,0.1,0.9,0.3,1.4c0.2,0.6,0,1-0.5,1.4
		C80,75.5,79.5,75.4,79,75c-1.8-1.5-3.6-3.1-5.4-4.6c-1.2-1.1-2.5-2-3.6-3.2c-0.3-0.4-0.3-0.9-0.3-1.4c0-4.4,0-8.8,0-13.3
		C69.8,52,69.7,51.5,70.1,51.1z"/>
	<path class="st5" d="M82.3,76.4c0,1.4,0,2.7,0,4.1c-1.4,0.6-2.7,1.1-3.8,2.1c-0.2,0.2-0.4,0.3-0.6,0.1c-0.1-0.1-0.2-0.1-0.3-0.1
		c-0.8-0.4-3.9-3-4.4-3.7c-2.9-4.1-8.5-5.6-13.2-3.4c-0.8,0.4-0.9,0.2-0.9-0.6c0-1,0.2-1.8,0.9-2.6c1.4-1.5,2.5-3.2,4.2-4.4
		c0.4-0.3,0.7-0.8,0.9-1.3c0.3-0.6,0.5-0.6,1-0.2c2.1,1.8,4.1,3.7,6.2,5.5c1.6,1.4,3.3,2.9,4.9,4.3C79,77.9,80.5,77.9,82.3,76.4z"/>
	<path class="st5" d="M20.5,80.9c0-1.3,0-2.6,0-3.9c1.8,0.9,3.1,0.8,4.6-0.6c3.8-3.3,7.6-6.7,11.4-10c0.1-0.1,0.2-0.2,0.3-0.2
		c1.2,2.2,3.2,3.5,4.8,5.4c1.3,1.6,2,3.1,1.5,5.1c-0.2,0.1-0.3-0.1-0.5-0.2c-5.2-3.4-11.9-1.8-15.1,3.5c-0.2,0.3-0.3,0.7-0.8,0.6
		C24.6,80,22.6,80.3,20.5,80.9z"/>
	<path class="st7" d="M41.9,18.8c-1.1,3.1-2.2,6.2-3,9.3c-0.1,0.4-0.3,0.6-0.7,0.6c-3.9,0-7.8,0-11.7-0.1c-0.5-1.3-0.4-2.5-0.1-3.8
		c0.4-0.3,0.9-0.3,1.3-0.3c2.2,0,4.4,0,6.5,0c0.4-0.1,0.9-0.2,1-0.8c0.1-0.5-0.2-0.8-0.7-1c-2.2-0.1-4.3,0-6.5-0.1
		c-0.5,0-1,0.1-1.5-0.1c-0.3-0.1-0.3-0.4-0.4-0.6c-0.1-1.2,1.2-3.1,2.4-3.6c4.1,0,8.2,0,12.3,0C41.3,18.5,41.7,18.2,41.9,18.8z"/>
	<path class="st8" d="M26.5,22.5c2.5,0,5,0,7.4,0c0.3,0,0.7-0.1,1,0.2c-0.5,0.5-1.1,0.4-1.7,0.4c-7.9,0-15.8,0-23.6,0
		c-0.5,0-0.9,0-1.4,0.1c-0.3,0.1-0.5,0.3-0.5,0.6c0,0.3,0.2,0.5,0.5,0.5c0.5,0.1,0.9,0.1,1.4,0.1c7.7,0,15.5,0,23.2,0
		c0.6,0,1.2-0.2,1.7,0.4c-0.7,0.3-1.4,0.1-2.1,0.1c-2,0-4,0-6,0c-0.4,0.4-1,0.3-1.5,0.3c-3.9,0-7.8,0-11.7,0c-1.4,0-1.4,0.1-1.4,1.4
		c0,0.7,0.2,1.4-0.3,2c-2.7,0-5.3,0-8,0.1c-0.6,0-0.8-0.3-0.8-0.8c0-1.8,0-3.7,0-5.5c0-2.3,1.6-3.9,4-3.9c2.9,0,5.7,0,8.6,0
		c8.6,0,17.2,0,25.7,0c0.2,0,0.9-0.5,0.8,0.4c-0.2-0.3-0.5-0.2-0.8-0.2c-4.2,0-8.4,0-12.6,0c-0.5,0.3-1.1,0.3-1.6,0.3
		c-4.1,0-8.3,0-12.4,0c-1.5,0-2.6,1.3-2.5,2.8c0,0.3,0.2,0.5,0.5,0.5c0.3,0,0.7,0,1,0c3.8,0,7.7,0,11.5,0
		C25.5,22.2,26,22.1,26.5,22.5z"/>
	<path class="st9" d="M58.3,28.2c-4.7,1.3-9.4,1.4-14,0c-0.2-0.3-0.2-0.6-0.1-0.9c0.4-2.2,0.8-4.3,1.3-6.5c0.1-0.4,0.1-0.8,0.6-0.9
		c0.7,1.9,2.2,2.1,3.9,1.9c1.3-0.1,2.7,0,4,0c1.7,0,2.1-0.4,2.5-2c0-0.2,0.1-0.4,0.2-0.5c0.4,0,0.4,0.3,0.4,0.5
		c0.3,2.4,1,4.7,1.3,7.1C58.5,27.4,58.6,27.8,58.3,28.2z"/>
	<path class="st10" d="M91.2,28.8c0-1.9,0-3.9,0-5.8c0-1.6-0.4-3.1-1.4-4.4c2,0,4.1-0.1,6.1,0c1.9,0,3.5,1.6,3.6,3.5c0.1,2,0,4,0,6
		c0,0.6-0.2,0.7-0.7,0.7C96.2,28.8,93.7,28.8,91.2,28.8z"/>
	<path class="st11" d="M70.1,51.1c0,5.4,0,10.7,0,16.1c-1.5-1-2.7-2.3-4.1-3.5c-0.3-0.2-0.2-0.5-0.2-0.8c0-5.1,0-10.2,0-15.2
		c0-0.1,0-0.2,0.1-0.4C67.3,48.5,68.8,49.6,70.1,51.1z"/>
	<path class="st11" d="M32.4,67.1c0-5.4,0-10.8,0-16.1c1.2-1.3,2.7-2.4,4-3.6c0.3,0.4,0.2,0.7,0.2,1c0,4.7,0,9.4,0,14.2
		c0,0.7-0.2,1.1-0.7,1.5C34.7,65.1,33.6,66.1,32.4,67.1z"/>
	<path class="st12" d="M42.9,63.2c5.7,0,11.3,0,17,0c0.6,1.3,0.3,3.1-0.6,3.9c-5.3,0-10.5,0-15.8,0C42.5,66.2,42.3,64.4,42.9,63.2z"
		/>
	<path class="st5" d="M11.5,28.6c0-0.9,0-1.9,0-2.8c0-0.8,0.2-0.9,1-0.9c4.7,0,9.4,0,14,0c0,1.3,0,2.5,0,3.8
		C21.5,28.6,16.5,28.6,11.5,28.6z"/>
	<path class="st13" d="M42.4,69.4c5.9,0,11.6,0,17.5,0c-0.8,0.9-1.5,1.7-2.2,2.5c-0.2,0.3-0.6,0.2-0.8,0.2c-3.8,0-7.6,0-11.4,0
		c-0.5,0-0.9-0.1-1.2-0.5C43.7,70.8,43.1,70.2,42.4,69.4z"/>
	<path class="st6" d="M46,19.9c-0.8,2.3-1,4.7-1.5,7c-0.1,0.4-0.1,0.8-0.2,1.3c0,0-0.1,0-0.1,0c-2.9-0.5-2.9-0.6-2.1-3.3
		c1.6-5.3,3.8-10.3,6.5-15.1c0.1-0.2,0.3-0.4,0.4-0.5c0.3,0.4,0.1,0.8,0,1.2c-0.3,1-0.7,2-0.9,3c-0.6,1.8-1.1,3.7-1.6,5.5
		C46.4,19.3,46.3,19.7,46,19.9z"/>
	<path class="st6" d="M58.3,28.2c-0.2-2.3-0.8-4.6-1.3-6.9c-0.2-0.7,0.1-1.4-0.3-2c-0.5-0.3-0.5-0.8-0.6-1.2
		c-0.4-1.7-0.8-3.4-1.6-4.9c-0.2-0.7-0.4-1.4-0.6-2c-0.1-0.3-0.3-0.7,0-1c2.4,3.9,4.2,8.1,5.7,12.5c0.5,1.3,0.8,2.7,1.2,4
		c0.2,0.5,0,0.7-0.4,0.9C59.7,27.8,59,28.1,58.3,28.2z"/>
	<path class="st9" d="M53.9,10.2c0,1,0.8,1.9,0.8,3c-1.2-0.2-2.4-0.3-3.6-0.3c-1.2,0-2.2,0.2-3.3,0.6c0.1-1.1,0.6-2,0.9-3.1
		c0.1-0.4,0.2-0.7,0.3-1.1c0.3-0.6,0.6-1.2,1-1.7c0.7-1,1.8-0.9,2.5,0.1C53,8.5,53.5,9.3,53.9,10.2z"/>
	<path class="st14" d="M42.9,63.2c0,1.3-0.1,2.7,0.6,3.9c-0.8,0-1.5,0-2.3,0c-1.4,0-2.4-1.1-2.5-2.4c0-0.7,0-1.4,0-2.2
		C40.1,63.2,41.5,63.2,42.9,63.2z"/>
	<path class="st15" d="M59.2,67.1c0.7-1.2,0.6-2.6,0.6-3.9c1,0,2-0.1,3-0.4c0.4-0.2,0.6-0.1,0.6,0.4c0,0.7,0,1.3,0,2
		c-0.1,1.1-1.1,1.9-2.3,2C60.5,67.1,59.8,67.1,59.2,67.1z"/>
	<path class="st16" d="M53.1,85.1c0-1.6,0-3.2,0-4.8c0-0.7,0.2-1.3,1-1.3c0.8,0,1.1,0.5,1.1,1.3c0,3.3,0,6.6,0,9.8
		c0,0.7-0.3,1.3-1.1,1.2c-0.8,0-1.1-0.5-1.1-1.2C53.1,88.4,53.1,86.7,53.1,85.1z"/>
	<path class="st0" d="M43,45.6c0.8-2.9,2.5-4.9,5.3-5.9c2.9-1.1,5.6-0.5,8,1.4c2.8,2.3,3.8,6,2.5,9.3c-1.2,3.3-4.4,5.4-7.9,5.3
		c-3.7-0.1-6.6-2.3-7.8-5.8c-0.1-0.2-0.1-0.4-0.2-0.6C42.8,48.1,42.8,46.8,43,45.6z"/>
	<path class="st17" d="M85,24.7c-0.7,0-1.2-0.3-1.3-1c0-0.8,0.5-1,1.3-1c0.7,0,1.2,0.2,1.2,1C86.2,24.5,85.7,24.7,85,24.7z"/>
	<path class="st18" d="M89.6,22.6c0.7,0,1.2,0.3,1.2,1c0,0.8-0.5,1-1.3,1c-0.7,0-1.2-0.2-1.2-1.1C88.4,22.8,88.9,22.6,89.6,22.6z"/>
	<path class="st5" d="M26.5,22.5c-4.7,0-9.5,0-14.2,0c-0.6,0-1-0.1-0.7-0.8c0.1-0.2,0.1-0.5,0.1-0.7c0.4-2,1-2.4,3-2.4
		c4.6,0,9.2,0,13.8,0C27.4,19.7,26.4,20.8,26.5,22.5z"/>
	<path class="st0" d="M34.6,24.7c-2.7,0-5.3,0-8,0c-5.9,0-11.8,0-17.7,0c-0.2,0-0.4,0-0.6,0c-0.6,0-1-0.4-1-1c0-0.6,0.3-1,1-1
		c1.1,0,2.2,0,3.3,0c7.8,0,15.6,0,23.5,0c0.6,0.2,0.7,0.7,0.6,1.2C35.5,24.5,35.1,24.7,34.6,24.7z"/>
	<path class="st4" d="M47.8,13.5c0.7-0.6,1.5-0.9,2.5-0.9c0.8,0.1,1.6,0,2.4,0c0.7,0,1.4,0.1,2,0.6c1,1.6,1.2,3.5,1.7,5.2
		c0.1,0.3,0.2,0.6,0.2,1c-0.1,2.2-0.6,2.8-2.9,2.8c-1.7,0-3.5,0-5.2,0c-1.7,0-2.3-0.5-2.6-2.2C46.5,17.7,47,15.6,47.8,13.5z"/>
	<path class="st18" d="M94.2,24.7c-0.7,0-1.2-0.2-1.2-1c0-0.8,0.6-1,1.3-1c0.7,0,1.2,0.2,1.2,1C95.4,24.4,94.9,24.7,94.2,24.7z"/>
	<path class="st5" d="M57.3,47.3c0,3.4-2.8,6.2-6.2,6.2c-3.4,0-6.2-2.8-6.2-6.2c0-3.4,2.8-6.2,6.3-6.2
		C54.5,41.1,57.3,43.9,57.3,47.3z"/>
	<path class="st12" d="M51.4,43.4c2.2,0,4.1,1.8,4.1,4c0,2.2-1.9,4.1-4.2,4.1c-2.2,0-4.1-1.8-4.1-4.1C47.2,45.2,49.1,43.4,51.4,43.4
		z"/>
</g>
</svg>
