<?xml version="1.0" encoding="utf-8"?>
<!-- Generator: Adobe Illustrator 25.4.1, SVG Export Plug-In . SVG Version: 6.00 Build 0)  -->
<svg version="1.1" id="Layer_1" xmlns="http://www.w3.org/2000/svg" xmlns:xlink="http://www.w3.org/1999/xlink" x="0px" y="0px"
	 viewBox="0 0 58 57" style="enable-background:new 0 0 58 57;" xml:space="preserve">
<style type="text/css">
	.st0{fill:#FEFEFE;}
	.st1{fill:#F9F9F9;}
	.st2{fill:#3A2C60;}
	.st3{fill:#728EBE;}
	.st4{fill:#708BBA;}
	.st5{fill:#EAEAEA;}
	.st6{fill:#36B284;}
	.st7{fill:#E56D67;}
	.st8{fill:#FED973;}
	.st9{fill:#24C2F1;}
	.st10{fill:#FEB966;}
</style>
<g>
	<path class="st0" d="M50.1,17.1c0.1,0,0.2,0,0.2,0c0.6,0.1,0.7-0.1,0.7-0.7c0-2,0-4.1,0-6.1c0-1.2-0.2-1.4-1.4-1.4
		c-13.4,0-26.8,0-40.2,0C9,8.8,8.8,8.7,8.8,8.2c0-1.6,0-3.2,0-4.8c0-0.6-0.3-1-0.8-1C5.8,2.2,3.8,2.8,2.3,4.6C1,6.1,0.6,8,0.6,10
		c0,13,0,25.9,0,38.9c0,0.2,0,0.4,0,0.6c0.1,1.6,0.7,3,2.1,4c1.3,0.9,2.7,1.2,4.2,1.2c14.3,0,28.5,0,42.8,0c1,0,1.3-0.3,1.3-1.3
		c0-6.9,0-13.7,0-20.6c0-0.9,0-0.9-0.9-1c0-1.1,0-2.3,0-3.4c0.1-0.1,0.2-0.3,0.4-0.4c2-2,4-4,6-6c0.7-0.7,1.1-1.5,0.9-2.5
		c-0.2-1-0.8-1.8-1.8-2.1c-1-0.3-2-0.1-2.8,0.6c-0.9,0.8-1.7,1.7-2.6,2.5c-0.1-0.2-0.1-0.4-0.1-0.5C50.1,18.9,50.1,18,50.1,17.1z"/>
	<path class="st1" d="M50.1,28.3c0,1.1,0,2.3,0,3.4c-0.9,0-0.9,0-0.9,1c0,6.5,0,13,0,19.5c0,0.5-0.1,0.6-0.6,0.6
		c-13.9,0-27.8,0-41.8,0c-0.5,0-0.9,0-1.4-0.1c-1.8-0.3-3-1.6-3.1-3.3c-0.1-1.8,0.9-3.2,2.7-3.7c0.7-0.2,1.5-0.3,2.3-0.3
		c1.3,0,1.5-0.2,1.5-1.4c0-10.9,0-21.9,0-32.8c0-0.3,0-0.6,0.5-0.6c13.1,0,26.3,0,39.4,0c0.4,0,0.5,0.1,0.5,0.5c0,1.7,0,3.3,0,5
		c0,0.9,0,0.9,0.9,1c0,0.9,0,1.8,0,2.7c0,0.2-0.1,0.4,0.1,0.5c-0.1,0.1-0.2,0.3-0.3,0.4c-3.5,3.5-7,7.1-10.6,10.5
		c-2.8,2.7-5.3,5.6-6.9,9.2c-0.2,0.4-0.4,0.4-0.7,0.4c-4.9,0-9.9,0-14.8,0c-2.4,0-4.3,1.8-4.3,4.1c0,2.3,1.9,4.1,4.3,4.1
		c1.8,0,3.6,0,5.4,0c1.3,0,1.3,0,1.3-1.3c0-0.4-0.1-0.5-0.5-0.5c-2.1,0-4.2,0-6.3,0c-1.1,0-1.9-0.6-2.2-1.6c-0.5-1.5,0.6-3,2.3-3
		c5.2,0,10.4,0,15.5,0c0.4,0,0.8-0.1,1.2-0.3c1.7-0.9,3.3-1.9,5-2.8c0.4-0.2,0.7-0.4,1-0.7c2.7-2.7,5.4-5.4,8.1-8.1
		C48.4,30,49.2,29.1,50.1,28.3z M19.8,12.5c-2.4,0-4.8,0-7.2,0c-0.7,0-1.1,0.3-1.1,1c0,4.2,0,8.4,0,12.6c0,0.7,0.4,1,1,1
		c3.3,0,6.6,0,9.8,0c0.7,0,1-0.4,1-1.1c0-0.7,0-1.5,0-2.2c0-0.4,0.1-0.4,0.4-0.4c1,0,1.9,0,2.9,0c0.9,0,1.2-0.3,1.2-1.2
		c0-2.8,0-5.7,0-8.5c0-0.9-0.3-1.2-1.2-1.2C24.5,12.5,22.2,12.5,19.8,12.5z M25.3,30.7c0,1.5,0,2.9,0,4.4c0,0.8,0.3,1.1,1.1,1.1
		c1.4,0,2.7,0,4.1,0c0.8,0,1.1-0.3,1.2-1.1c0-1.3,0-2.5,0-3.8c0-0.5,0.1-0.6,0.6-0.6c1,0,1.9,0,2.9,0c0.8,0,1.1-0.3,1.1-1.1
		c0-1.1,0-2.2,0-3.3c0-0.8-0.3-1.1-1.1-1.1c-2.9,0-5.8,0-8.8,0c-0.8,0-1.1,0.3-1.1,1.2C25.3,27.9,25.3,29.3,25.3,30.7z M40.9,51
		c1.5,0,2.9,0,4.4,0c0.8,0,1.2-0.3,1.2-1.1c0-2.6,0-5.2,0-7.8c0-0.8-0.3-1.1-1.1-1.1c-1.4,0-2.8,0-4.2,0c-0.8,0-1.1,0.3-1.1,1.1
		c0,1,0,2,0,3c0,0.4-0.1,0.5-0.5,0.5c-1,0-1.9,0-2.9,0c-0.9,0-1.2,0.3-1.2,1.2c0,1.1,0,2.1,0,3.2c0,0.8,0.3,1.1,1.1,1.1
		C38,51,39.4,51,40.9,51z M36.3,12.5c-1.4,0-2.9,0-4.3,0c-0.8,0-1.1,0.3-1.1,1.1c0,2.3,0,4.7,0,7c0,0.7,0.3,1.1,1.1,1.1
		c2.9,0,5.9,0,8.8,0c0.8,0,1.1-0.3,1.1-1.1c0-2.3,0-4.6,0-6.9c0-0.8-0.3-1.1-1.1-1.1C39.3,12.5,37.8,12.5,36.3,12.5z M17.6,36.3
		c1.6,0,3.2,0,4.8,0c0.8,0,1.1-0.3,1.1-1.1c0-1.4,0-2.7,0-4.1c0-0.8-0.3-1.2-1.1-1.2c-3.2,0-6.4,0-9.7,0c-0.8,0-1.1,0.3-1.1,1.1
		c0,1.4,0,2.8,0,4.2c0,0.8,0.3,1.1,1.2,1.1C14.3,36.3,15.9,36.3,17.6,36.3z M27.2,48.2c0-0.9,0-0.9-0.9-0.9c-0.9,0-0.9,0-0.9,0.9
		c0,0.9,0,0.9,0.9,0.9C27.2,49.1,27.2,49.1,27.2,48.2z"/>
	<path class="st2" d="M50.1,17.1c-0.9,0-0.9,0-0.9-1c0-1.7,0-3.3,0-5c0-0.4-0.1-0.5-0.5-0.5c-13.1,0-26.3,0-39.4,0
		c-0.5,0-0.5,0.2-0.5,0.6c0,10.9,0,21.9,0,32.8c0,1.2-0.2,1.5-1.5,1.4c-0.8,0-1.5,0-2.3,0.3c-1.8,0.5-2.8,1.9-2.7,3.7
		c0.1,1.7,1.2,2.9,3.1,3.3c0.5,0.1,0.9,0.1,1.4,0.1c13.9,0,27.8,0,41.8,0c0.5,0,0.6-0.1,0.6-0.6c0-6.5,0-13,0-19.5
		c0-0.9,0-0.9,0.9-1c0.9,0,0.9,0,0.9,1c0,6.9,0,13.7,0,20.6c0,1.1-0.3,1.3-1.3,1.3c-14.3,0-28.5,0-42.8,0c-1.5,0-3-0.3-4.2-1.2
		c-1.3-1-2-2.3-2.1-4c0-0.2,0-0.4,0-0.6c0-13,0-25.9,0-38.9c0-2,0.4-3.8,1.7-5.4C3.8,2.8,5.8,2.2,8,2.4c0.5,0,0.8,0.4,0.8,1
		c0,1.6,0,3.2,0,4.8c0,0.5,0.1,0.6,0.6,0.6c13.4,0,26.8,0,40.2,0c1.2,0,1.4,0.2,1.4,1.4c0,2,0,4.1,0,6.1c0,0.6-0.1,0.8-0.7,0.7
		C50.2,17,50.2,17.1,50.1,17.1z M2.4,45.1c1.3-1,2.7-1.4,4.1-1.4c0.4,0,0.5-0.1,0.5-0.5C7,30.3,7,17.5,7,4.7c0-0.4-0.2-0.5-0.5-0.4
		c-1.3,0.2-2.4,0.9-3.1,2C2.6,7.4,2.4,8.6,2.4,9.9c0,11.5,0,23,0,34.5C2.4,44.6,2.4,44.8,2.4,45.1z"/>
	<path class="st2" d="M50.1,28.3c-0.9,0.8-1.7,1.7-2.6,2.5c-2.7,2.7-5.4,5.4-8.1,8.1c-0.3,0.3-0.6,0.5-1,0.7c-1.7,0.9-3.3,1.8-5,2.8
		c-0.4,0.2-0.8,0.3-1.2,0.3c-5.2,0-10.4,0-15.5,0c-1.7,0-2.8,1.5-2.3,3c0.3,0.9,1.2,1.6,2.2,1.6c2.1,0,4.2,0,6.3,0
		c0.4,0,0.5,0.1,0.5,0.5c0,1.3,0,1.3-1.3,1.3c-1.8,0-3.6,0-5.4,0c-2.4,0-4.3-1.8-4.3-4.1c0-2.3,1.9-4.1,4.3-4.1c4.9,0,9.9,0,14.8,0
		c0.4,0,0.6-0.1,0.7-0.4c1.6-3.6,4-6.5,6.9-9.2c3.6-3.4,7.1-7,10.6-10.5c0.1-0.1,0.2-0.3,0.3-0.4c0.9-0.8,1.7-1.7,2.6-2.5
		c0.8-0.8,1.8-1,2.8-0.6c1,0.3,1.6,1.1,1.8,2.1c0.2,1-0.2,1.8-0.9,2.5c-2,2-4,4-6,6C50.3,28,50.2,28.2,50.1,28.3z M35.2,39.3
		c1.3-0.7,2.7-1.3,3.7-2.4c3.8-3.9,7.8-7.8,11.6-11.7c0.9-0.9,0.8-0.8,0-1.7c-0.3-0.4-0.5-0.4-0.9,0c-4.2,4.2-8.4,8.4-12.6,12.6
		C36.2,37,35.8,38.2,35.2,39.3z M54.7,18.9c-0.3,0-0.6,0.2-0.8,0.4c-0.5,0.5-1,1-1.5,1.5c-1.1,1.1-1.1,1.1,0.1,2.1
		c0.1,0.1,0.2,0.2,0.3,0c0.9-0.9,1.7-1.7,2.6-2.6c0.2-0.2,0.2-0.6,0.1-0.9C55.3,19.1,55,18.9,54.7,18.9z"/>
	<path class="st2" d="M19.8,12.5c2.3,0,4.7,0,7,0c0.9,0,1.2,0.3,1.2,1.2c0,2.8,0,5.7,0,8.5c0,0.9-0.3,1.2-1.2,1.2c-1,0-1.9,0-2.9,0
		c-0.3,0-0.5,0.1-0.4,0.4c0,0.7,0,1.4,0,2.2c0,0.7-0.3,1.1-1,1.1c-3.3,0-6.6,0-9.8,0c-0.7,0-1-0.4-1-1c0-4.2,0-8.4,0-12.6
		c0-0.7,0.4-1,1.1-1C15.1,12.5,17.4,12.5,19.8,12.5z M19.9,14.3c-2,0-4,0-6,0c-0.3,0-0.5,0-0.5,0.4c0,3.4,0,6.8,0,10.2
		c0,0.3,0.1,0.4,0.4,0.4c2.5,0,5,0,7.4,0c0.3,0,0.4-0.1,0.4-0.4c0-0.7,0-1.4,0-2.1c0-0.8,0.3-1.1,1.1-1.1c1,0,2,0,3,0
		c0.4,0,0.5-0.1,0.5-0.5c0-2.1,0-4.2,0-6.4c0-0.4-0.1-0.5-0.5-0.5C23.8,14.3,21.8,14.3,19.9,14.3z"/>
	<path class="st2" d="M25.3,30.7c0-1.4,0-2.9,0-4.3c0-0.8,0.3-1.2,1.1-1.2c2.9,0,5.8,0,8.8,0c0.8,0,1.1,0.3,1.1,1.1
		c0,1.1,0,2.2,0,3.3c0,0.8-0.3,1.1-1.1,1.1c-1,0-1.9,0-2.9,0c-0.5,0-0.6,0.1-0.6,0.6c0,1.3,0,2.5,0,3.8c0,0.8-0.3,1.1-1.2,1.1
		c-1.4,0-2.7,0-4.1,0c-0.8,0-1.1-0.3-1.1-1.1C25.3,33.7,25.3,32.2,25.3,30.7z M27.2,30.8c0,1.1,0,2.1,0,3.2c0,0.4,0.1,0.5,0.5,0.5
		c0.6,0,1.2,0,1.8,0c0.4,0,0.5-0.1,0.5-0.5c0-1.3,0-2.6,0-4c0-0.7,0.3-1.1,1.1-1.1c0.7,0,1.4,0,2.1,0c1.4,0,1.4,0,1.4-1.4
		c0-0.3-0.1-0.4-0.4-0.4c-2.2,0-4.4,0-6.6,0c-0.3,0-0.4,0.1-0.4,0.4C27.2,28.6,27.2,29.7,27.2,30.8z"/>
	<path class="st2" d="M40.9,51c-1.4,0-2.9,0-4.3,0c-0.8,0-1.1-0.3-1.1-1.1c0-1.1,0-2.1,0-3.2c0-0.8,0.3-1.2,1.2-1.2c1,0,1.9,0,2.9,0
		c0.4,0,0.5-0.1,0.5-0.5c0-1,0-2,0-3c0-0.8,0.3-1.1,1.1-1.1c1.4,0,2.8,0,4.2,0c0.8,0,1.1,0.3,1.1,1.1c0,2.6,0,5.2,0,7.8
		c0,0.8-0.3,1.1-1.2,1.1C43.8,51,42.3,51,40.9,51z M40.9,49.1c1.1,0,2.2,0,3.3,0c0.2,0,0.4,0,0.4-0.3c0-1.9,0-3.9,0-5.8
		c0-0.3-0.1-0.3-0.3-0.3c-0.7,0-1.4,0-2.1,0c-0.3,0-0.4,0.1-0.4,0.4c0,1,0,2.1,0,3.1c0,0.8-0.3,1.1-1.1,1.1c-0.7,0-1.4,0-2.1,0
		c-1.5,0-1.5,0-1.4,1.5c0,0.3,0.1,0.4,0.4,0.4C38.7,49.1,39.8,49.1,40.9,49.1z"/>
	<path class="st2" d="M36.3,12.5c1.5,0,2.9,0,4.4,0c0.8,0,1.1,0.3,1.1,1.1c0,2.3,0,4.6,0,6.9c0,0.8-0.3,1.1-1.1,1.1
		c-2.9,0-5.9,0-8.8,0c-0.7,0-1.1-0.3-1.1-1.1c0-2.3,0-4.7,0-7c0-0.8,0.3-1.1,1.1-1.1C33.4,12.5,34.9,12.5,36.3,12.5z M36.4,14.3
		c-1.1,0-2.1,0-3.2,0c-0.3,0-0.5,0-0.5,0.5c0,1.5,0,3.1,0,4.6c0,0.4,0.1,0.4,0.5,0.4c2.2,0,4.3,0,6.5,0c0.4,0,0.4-0.1,0.4-0.5
		c0-1.5,0-3.1,0-4.6c0-0.4-0.1-0.4-0.5-0.4C38.5,14.3,37.4,14.3,36.4,14.3z"/>
	<path class="st2" d="M17.6,36.3c-1.6,0-3.2,0-4.8,0c-0.8,0-1.2-0.3-1.2-1.1c0-1.4,0-2.8,0-4.2c0-0.8,0.3-1.1,1.1-1.1
		c3.2,0,6.4,0,9.7,0c0.8,0,1.1,0.3,1.1,1.2c0,1.4,0,2.7,0,4.1c0,0.8-0.3,1.1-1.1,1.1C20.8,36.3,19.2,36.3,17.6,36.3z M17.5,34.5
		c1.2,0,2.5,0,3.7,0c0.3,0,0.4-0.1,0.4-0.4c0-0.7,0-1.3,0-2c0-0.3-0.1-0.4-0.3-0.4c-2.5,0-5,0-7.5,0c-0.3,0-0.4,0.1-0.4,0.4
		c0,0.6,0,1.3,0,1.9c0,0.4,0.1,0.5,0.5,0.5C15.1,34.4,16.3,34.5,17.5,34.5z"/>
	<path class="st2" d="M27.2,48.2c0,0.9,0,0.9-0.9,0.9c-0.9,0-0.9,0-0.9-0.9c0-0.9,0-0.9,0.9-0.9C27.2,47.3,27.2,47.3,27.2,48.2z"/>
	<path class="st3" d="M2.4,45.1c0-0.3,0-0.5,0-0.7c0-11.5,0-23,0-34.5c0-1.3,0.2-2.6,0.9-3.7c0.7-1.1,1.8-1.8,3.1-2
		C6.9,4.2,7,4.2,7,4.7c0,12.8,0,25.7,0,38.5c0,0.4-0.1,0.5-0.5,0.5C5.1,43.7,3.7,44.1,2.4,45.1z"/>
	<path class="st4" d="M35.2,39.3c0.6-1.1,1-2.3,1.9-3.2c4.2-4.2,8.4-8.4,12.6-12.6c0.4-0.4,0.5-0.4,0.9,0c0.8,0.9,0.9,0.9,0,1.7
		c-3.9,3.9-7.8,7.7-11.6,11.7C37.9,38,36.5,38.6,35.2,39.3z"/>
	<path class="st5" d="M54.7,18.9c0.4,0,0.6,0.2,0.8,0.5c0.2,0.3,0.2,0.7-0.1,0.9c-0.8,0.9-1.7,1.7-2.6,2.6c-0.1,0.1-0.2,0-0.3,0
		c-1.2-1-1.2-1-0.1-2.1c0.5-0.5,1-1,1.5-1.5C54.1,19,54.4,18.9,54.7,18.9z"/>
	<path class="st6" d="M19.9,14.3c2,0,3.9,0,5.9,0c0.4,0,0.5,0.1,0.5,0.5c0,2.1,0,4.2,0,6.4c0,0.4-0.1,0.5-0.5,0.5c-1,0-2,0-3,0
		c-0.8,0-1.1,0.3-1.1,1.1c0,0.7,0,1.4,0,2.1c0,0.3-0.1,0.4-0.4,0.4c-2.5,0-5,0-7.4,0c-0.3,0-0.4-0.1-0.4-0.4c0-3.4,0-6.8,0-10.2
		c0-0.4,0.2-0.4,0.5-0.4C15.9,14.3,17.9,14.3,19.9,14.3z"/>
	<path class="st7" d="M27.2,30.8c0-1.1,0-2.2,0-3.3c0-0.3,0.1-0.4,0.4-0.4c2.2,0,4.4,0,6.6,0c0.3,0,0.4,0.1,0.4,0.4
		c0,1.4,0.1,1.4-1.4,1.4c-0.7,0-1.4,0-2.1,0c-0.8,0-1.1,0.3-1.1,1.1c0,1.3,0,2.6,0,4c0,0.4-0.1,0.5-0.5,0.5c-0.6,0-1.2,0-1.8,0
		c-0.4,0-0.5-0.1-0.5-0.5C27.2,32.9,27.2,31.8,27.2,30.8z"/>
	<path class="st8" d="M40.9,49.1c-1.1,0-2.2,0-3.3,0c-0.3,0-0.4-0.1-0.4-0.4c0-1.5-0.1-1.5,1.4-1.5c0.7,0,1.4,0,2.1,0
		c0.8,0,1.1-0.3,1.1-1.1c0-1,0-2.1,0-3.1c0-0.3,0.1-0.4,0.4-0.4c0.7,0,1.4,0,2.1,0c0.2,0,0.3,0.1,0.3,0.3c0,1.9,0,3.9,0,5.8
		c0,0.3-0.1,0.3-0.4,0.3C43.1,49.1,42,49.1,40.9,49.1z"/>
	<path class="st9" d="M36.4,14.3c1.1,0,2.1,0,3.2,0c0.3,0,0.5,0.1,0.5,0.4c0,1.5,0,3.1,0,4.6c0,0.3-0.1,0.5-0.4,0.5
		c-2.2,0-4.3,0-6.5,0c-0.3,0-0.5-0.1-0.5-0.4c0-1.5,0-3.1,0-4.6c0-0.4,0.1-0.5,0.5-0.5C34.2,14.3,35.3,14.3,36.4,14.3z"/>
	<path class="st10" d="M17.5,34.5c-1.2,0-2.4,0-3.7,0c-0.4,0-0.5-0.1-0.5-0.5c0-0.6,0-1.3,0-1.9c0-0.3,0-0.4,0.4-0.4
		c2.5,0,5,0,7.5,0c0.3,0,0.4,0.1,0.3,0.4c0,0.7,0,1.3,0,2c0,0.3-0.1,0.4-0.4,0.4C20,34.5,18.8,34.5,17.5,34.5z"/>
</g>
</svg>
