<?xml version="1.0" encoding="utf-8"?>
<!-- Generator: Adobe Illustrator 25.4.1, SVG Export Plug-In . SVG Version: 6.00 Build 0)  -->
<svg version="1.1" id="Layer_1" xmlns="http://www.w3.org/2000/svg" xmlns:xlink="http://www.w3.org/1999/xlink" x="0px" y="0px"
	 viewBox="0 0 58 57" style="enable-background:new 0 0 58 57;" xml:space="preserve">
<style type="text/css">
	.st0{fill:#3E3265;}
	.st1{fill:#D3FAFE;}
	.st2{fill:#FDD6E4;}
	.st3{fill:#0188ED;}
	.st4{fill:#FCFEFE;}
	.st5{fill:#FEFCFD;}
	.st6{fill:#403164;}
	.st7{fill:#3A2C60;}
	.st8{fill:#F9759E;}
	.st9{fill:#3A2F63;}
	.st10{fill:#6BC7F6;}
	.st11{fill:#F7749D;}
	.st12{fill:#0088ED;}
</style>
<g>
	<path class="st0" d="M2.6,54.2c-1.4-0.5-2-1.2-2-2.7c0-15.4,0-30.7,0-46.1c0-1.7,1-2.7,2.7-2.7c5.6,0,11.2,0,16.9,0
		c1.5,0,2.6,0.6,3.4,1.8c0.2,0.3,0.4,0.5,0.6,0.8c0.4,0.6,0.7,1.3,1.5,1.6c0.5,0.4,1.1,0.3,1.6,0.3c9.1,0,18.3,0,27.4,0
		c1.6,0,2.3,0.5,2.8,2c0,6.8,0,13.6,0,20.4c0,2.3,0,4.6,0,6.9c0,0.4,0,0.7-0.5,0.8c-0.5-0.1-0.5-0.5-0.5-0.9c0-6.8,0-13.6,0-20.3
		c0-0.5-0.1-0.7-0.7-0.7c-8.5,0-17,0-25.6,0c-0.6,0-0.7,0.2-0.7,0.7c0,11.8,0,23.7,0,35.5c0,0.2,0,0.4,0,0.6c-0.1,1-0.1,1,0.9,1
		c8,0,15.9,0,23.9,0c0.2,0,0.4,0,0.7,0c0.9-0.1,1.4-0.6,1.4-1.5c0-2,0-4,0-6.1c0-0.4,0-0.7,0.5-0.8c0.4,0,0.5,0.3,0.5,0.7
		c0,2.1,0,4.2,0,6.3c0,1.1-0.8,2-1.8,2.3c-0.4,0.1-0.7,0.1-1.1,0.1c-14.8,0-29.7,0-44.5,0C7.5,54.2,5,54.2,2.6,54.2z M1.6,51.8
		c0,1,0.6,1.5,1.8,1.5c8.1,0,16.1,0,24.2,0c1,0,1,0,0.9-1c0-1.5,0-3,0-4.5c0-0.4-0.1-0.5-0.5-0.5c-1.9,0-3.9,0-5.8,0
		c-0.4,0-0.7,0-0.7-0.5c0-0.5,0.3-0.5,0.7-0.5c1.5,0,2.9,0,4.4,0c0.6,0,1.4,0.2,1.8-0.1c0.4-0.4,0.1-1.2,0.1-1.8
		c0.1-0.5-0.2-0.5-0.6-0.5c-2.8,0-5.6,0-8.5,0c-0.2,0-0.3,0-0.5,0c-0.3,0-0.5-0.2-0.4-0.5c0-0.3,0.2-0.4,0.5-0.5c0.2,0,0.3,0,0.5,0
		c2.8,0,5.7,0,8.5,0c0.4,0,0.5-0.1,0.5-0.5c0-1.6,0-3.2,0-4.7c0-0.5-0.2-0.6-0.6-0.6c-6.3,0-12.6,0-18.9,0c-0.4,0-0.8,0-0.8-0.5
		c0-0.5,0.4-0.5,0.8-0.5c1.8,0,3.7,0,5.5,0c4.5,0,8.9,0,13.4,0c0.6,0,0.7-0.2,0.6-0.7c0-0.4,0-0.9,0-1.3c0-0.4-0.1-0.5-0.5-0.5
		c-1.2,0-2.5,0-3.7,0c-0.4,0-0.9,0.1-0.9-0.5c0-0.6,0.5-0.5,0.9-0.5c1.2,0,2.4,0,3.6,0c0.5,0,0.6-0.1,0.6-0.6c0-5.3,0-10.6,0-16
		c0-0.5-0.1-0.7-0.7-0.7c-8.5,0-17,0-25.6,0c-0.7,0-0.7,0.2-0.7,0.8c0,11.7,0,23.3,0,35C1.6,51.4,1.6,51.6,1.6,51.8z M29,14.5
		c8.8,0,17.7,0,26.5,0c0.2,0,0.3,0,0.5,0c0.3,0,0.4-0.1,0.4-0.4c0-1.5,0-3,0-4.5c0-0.8-0.6-1.3-1.3-1.3c-0.2,0-0.5,0-0.7,0
		c-9,0-18.1,0-27.1,0c-1.6,0-2.9-0.6-3.8-2c-0.3-0.4-0.6-0.8-0.9-1.3c-0.6-0.9-1.4-1.3-2.5-1.3c-5.6,0-11.2,0-16.9,0
		c-1.2,0-1.7,0.5-1.7,1.7c0,2.8,0,5.5,0,8.3c0,0.6,0.2,0.8,0.8,0.8C11.2,14.5,20.1,14.5,29,14.5z"/>
	<path class="st1" d="M1.6,51.8c0-0.2,0-0.4,0-0.6c0-11.7,0-23.3,0-35c0-0.6,0.1-0.8,0.7-0.8c8.5,0,17,0,25.6,0
		c0.6,0,0.7,0.2,0.7,0.7c0,5.3,0,10.6,0,16c0,0.5-0.1,0.6-0.6,0.6c-1.2,0-2.4,0-3.6,0c-0.4,0-0.9-0.1-0.9,0.5c0,0.6,0.5,0.5,0.9,0.5
		c1.2,0,2.5,0,3.7,0c0.4,0,0.5,0.1,0.5,0.5c0,0.4,0,0.9,0,1.3c0.1,0.5-0.1,0.7-0.6,0.7c-4.5,0-8.9,0-13.4,0c-1.8,0-3.7,0-5.5,0
		c-0.4,0-0.8,0-0.8,0.5c0,0.5,0.4,0.5,0.8,0.5c6.3,0,12.6,0,18.9,0c0.5,0,0.7,0.1,0.6,0.6c0,1.6,0,3.2,0,4.7c0,0.4-0.1,0.5-0.5,0.5
		c-2.8,0-5.7,0-8.5,0c-0.2,0-0.3,0-0.5,0c-0.3,0-0.5,0.2-0.5,0.5c0,0.3,0.2,0.4,0.4,0.5c0.2,0,0.3,0,0.5,0c2.8,0,5.6,0,8.5,0
		c0.4,0,0.6,0,0.6,0.5c-0.1,0.6,0.3,1.4-0.1,1.8c-0.3,0.3-1.2,0.1-1.8,0.1c-1.5,0-2.9,0-4.4,0c-0.4,0-0.7,0.1-0.7,0.5
		c0,0.4,0.4,0.5,0.7,0.5c1.9,0,3.9,0,5.8,0c0.4,0,0.5,0.1,0.5,0.5c0,1.5,0,3,0,4.5c-8.3,0-16.6,0-24.9,0C2.8,52.3,2.2,52.2,1.6,51.8
		z M10.9,26.2c0,0.4,0.2,0.6,0.6,0.7c0.4,0.1,0.7-0.1,0.8-0.5c0.3-0.9,0.6-1.8,0.8-2.7c0.6-1.9,1.2-3.7,1.8-5.6c0.2-0.6-0.1-1-0.6-1
		c-0.4,0-0.6,0.3-0.7,0.7c-0.8,2.6-1.7,5.3-2.5,7.9C11,25.9,10.9,26,10.9,26.2z M6.3,22.7c0.3-0.1,0.5-0.2,0.6-0.3
		c1-0.4,2-0.8,3-1.2c0.3-0.1,0.5-0.4,0.4-0.7c-0.1-0.4-0.4-0.5-0.8-0.4c-0.1,0-0.2,0.1-0.3,0.1c-1.3,0.5-2.5,1-3.8,1.5
		c-0.5,0.2-0.8,0.4-0.8,1c0,0.5,0.3,0.8,0.8,1c1.1,0.4,2.2,0.9,3.3,1.3c0.2,0.1,0.5,0.2,0.7,0.3c0.4,0.1,0.7,0.1,0.9-0.3
		c0.2-0.4,0-0.7-0.4-0.8c-0.3-0.1-0.7-0.3-1-0.4C8,23.4,7.2,23.1,6.3,22.7z M19.7,22.7c-1.3,0.5-2.5,1-3.7,1.5
		c-0.4,0.1-0.6,0.4-0.4,0.8c0.1,0.4,0.5,0.5,0.8,0.4c1.4-0.6,2.9-1.2,4.3-1.8c0.4-0.2,0.5-0.5,0.5-0.9c0-0.4-0.2-0.7-0.5-0.9
		c-1.4-0.6-2.8-1.2-4.3-1.7c-0.4-0.2-0.7,0-0.8,0.4c-0.1,0.4,0.2,0.6,0.5,0.7C17.2,21.7,18.4,22.1,19.7,22.7z M14.7,32.6
		c-1.9,0-3.9,0-5.8,0c-0.4,0-0.7,0-0.7,0.5c0,0.5,0.4,0.5,0.8,0.5c3.9,0,7.8,0,11.7,0c0.4,0,0.7,0,0.7-0.5c0-0.5-0.4-0.5-0.8-0.5
		C18.6,32.6,16.7,32.6,14.7,32.6z M14,47.3c1.7,0,3.4,0,5.2,0c0.4,0,0.8,0,0.8-0.5c0-0.5-0.4-0.5-0.8-0.5c-3.4,0-6.9,0-10.3,0
		c-0.4,0-0.7,0-0.8,0.5c0,0.5,0.4,0.5,0.7,0.5C10.6,47.3,12.3,47.3,14,47.3z M9.3,29.2c-1.3,0-2.6,0-3.8,0c-0.4,0-0.7,0-0.7,0.5
		c0,0.4,0.4,0.5,0.7,0.5c2.6,0,5.1,0,7.7,0c0.4,0,0.7,0,0.7-0.5c0-0.4-0.4-0.5-0.7-0.5C11.9,29.2,10.6,29.2,9.3,29.2z M8.9,40.4
		c1.2,0,2.4,0,3.5,0c0.4,0,0.7-0.1,0.7-0.5c0-0.4-0.3-0.5-0.7-0.5c-2.3,0-4.7,0-7,0c-0.4,0-0.7,0-0.7,0.5c0,0.4,0.3,0.5,0.7,0.5
		C6.6,40.4,7.8,40.4,8.9,40.4z M9,49.7c-1.2,0-2.3,0-3.5,0c-0.4,0-0.7,0-0.7,0.5c0,0.4,0.4,0.5,0.7,0.5c2.3,0,4.7,0,7,0
		c0.4,0,0.7-0.1,0.7-0.5c0-0.4-0.4-0.5-0.7-0.5C11.3,49.7,10.1,49.7,9,49.7z M12.4,42.9c-1.2,0-2.4,0-3.5,0c-0.4,0-0.7,0.1-0.7,0.5
		c0,0.4,0.3,0.5,0.7,0.5c2.3,0,4.6,0,6.9,0c0.4,0,0.7-0.1,0.7-0.5c0-0.4-0.3-0.5-0.7-0.5C14.6,42.9,13.5,42.9,12.4,42.9z M17.1,40.4
		c0.8,0,1.6,0,2.4,0c0.3,0,0.6-0.1,0.6-0.5c0-0.4-0.3-0.5-0.6-0.5c-1.6,0-3.1,0-4.7,0c-0.3,0-0.6,0.1-0.6,0.5c0,0.4,0.3,0.5,0.7,0.5
		C15.6,40.4,16.3,40.4,17.1,40.4z M17.1,50.7c0.8,0,1.5,0,2.3,0c0.4,0,0.7-0.1,0.7-0.5c0-0.4-0.3-0.5-0.6-0.5c-1.5,0-3.1,0-4.6,0
		c-0.4,0-0.7,0.1-0.7,0.5c0,0.4,0.3,0.5,0.7,0.5C15.6,50.7,16.4,50.7,17.1,50.7z M18,29.2c-0.5,0-1,0-1.5,0c-0.3,0-0.6,0.1-0.6,0.5
		c0,0.4,0.3,0.5,0.6,0.5c1,0,2,0,3,0c0.3,0,0.6-0.1,0.6-0.5c0-0.4-0.3-0.5-0.6-0.5C19,29.2,18.5,29.2,18,29.2z"/>
	<path class="st2" d="M56.9,37.4c0,0.3,0,0.6,0,0.9c-0.4,0.1-0.5,0.4-0.5,0.8c0,1.4,0,2.7,0,4.1c0,0.4,0.1,0.6,0.5,0.8
		c0,0.3,0,0.6,0,0.9c-0.4,0.1-0.5,0.4-0.5,0.8c0,2,0,4,0,6.1c-0.6,0.4-1.2,0.5-2,0.5c-8.3,0-16.6,0-24.9,0c0-0.2,0-0.4,0-0.6
		c0-11.8,0-23.7,0-35.5c0-0.6,0.1-0.7,0.7-0.7c8.5,0,17,0,25.6,0c0.6,0,0.7,0.2,0.7,0.7c0,6.8,0,13.6,0,20.3
		C56.4,36.9,56.4,37.3,56.9,37.4z M42.6,29.2c-3,0-6,0-8.9,0c-1.2,0-1.7,0.5-1.7,1.7c0,3.8,0,7.7,0,11.5c0,1.2,0.6,1.8,1.8,1.8
		c6,0,11.9,0,17.9,0c1.2,0,1.8-0.6,1.8-1.8c0-3.8,0-7.6,0-11.4c0-1.2-0.5-1.8-1.8-1.8C48.6,29.2,45.6,29.2,42.6,29.2z M42.6,27
		c3,0,6,0,9,0c1.2,0,1.7-0.6,1.7-1.7c0-2,0-4.1,0-6.1c0-1.1-0.6-1.7-1.7-1.7c-6,0-12.1,0-18.1,0c-1.1,0-1.7,0.6-1.7,1.7c0,2,0,4,0,6
		c0,1.3,0.5,1.8,1.8,1.8C36.7,27,39.7,27,42.6,27z M42.6,46.3c-3,0-6,0-8.9,0c-0.2,0-0.3,0-0.5,0c-0.3,0-0.4,0.2-0.4,0.5
		c0,0.3,0.2,0.4,0.5,0.5c0.1,0,0.3,0,0.4,0c6,0,12,0,17.9,0c0.2,0,0.4,0,0.5,0c0.2-0.1,0.3-0.2,0.4-0.4c0-0.3-0.1-0.4-0.4-0.5
		c-0.2,0-0.4,0-0.5,0C48.6,46.3,45.6,46.3,42.6,46.3z M42.7,49.7c-3,0-6,0-8.9,0c-0.2,0-0.3,0-0.5,0c-0.3,0-0.5,0.2-0.5,0.5
		c0,0.3,0.2,0.4,0.4,0.5c0.2,0,0.3,0,0.5,0c6,0,11.9,0,17.9,0c0.1,0,0.2,0,0.3,0c0.3,0,0.6-0.1,0.6-0.5c0-0.4-0.3-0.5-0.6-0.5
		c-0.1,0-0.3,0-0.4,0C48.6,49.7,45.6,49.7,42.7,49.7z"/>
	<path class="st3" d="M29,14.5c-8.9,0-17.8,0-26.7,0c-0.6,0-0.8-0.1-0.8-0.8c0-2.8,0-5.5,0-8.3c0-1.2,0.5-1.7,1.7-1.7
		c5.6,0,11.2,0,16.9,0c1.1,0,1.9,0.4,2.5,1.3c0.3,0.4,0.6,0.8,0.9,1.3c0.9,1.4,2.1,2,3.8,2c9,0,18.1,0,27.1,0c0.2,0,0.5,0,0.7,0
		c0.8,0,1.3,0.6,1.3,1.3c0,1.5,0,3,0,4.5c0,0.3-0.1,0.4-0.4,0.4c-0.2,0-0.3,0-0.5,0C46.7,14.5,37.9,14.5,29,14.5z M29.3,12.6
		c7.4,0,14.9,0,22.3,0c0.2,0,0.4,0,0.5,0c0.4,0,0.6-0.2,0.7-0.6c0.1-0.4-0.1-0.7-0.5-0.8c-0.2-0.1-0.4-0.1-0.7-0.1
		c-14.9,0-29.8,0-44.7,0c-0.8,0-1.2,0.3-1.2,0.8c0,0.5,0.4,0.7,1.2,0.7C14.4,12.6,21.9,12.6,29.3,12.6z M16.8,8.8
		c0.7,0,1.3-0.6,1.3-1.3c0-0.7-0.6-1.3-1.3-1.3c-0.7,0-1.4,0.6-1.4,1.3C15.5,8.2,16.1,8.8,16.8,8.8z M13.3,7.5
		c0-0.7-0.6-1.3-1.3-1.3c-0.7,0-1.4,0.6-1.4,1.4c0,0.7,0.6,1.3,1.3,1.3C12.7,8.8,13.3,8.2,13.3,7.5z M7.1,6.1
		c-0.7,0-1.3,0.6-1.3,1.3c0,0.7,0.6,1.3,1.3,1.3c0.7,0,1.4-0.6,1.3-1.4C8.5,6.7,7.8,6.1,7.1,6.1z"/>
	<path class="st4" d="M1.6,51.8c0.6,0.4,1.2,0.5,2,0.5c8.3,0,16.6,0,24.9,0c0.1,1,0.1,1-0.9,1c-8.1,0-16.1,0-24.2,0
		C2.1,53.3,1.6,52.8,1.6,51.8z"/>
	<path class="st5" d="M29.5,52.3c8.3,0,16.6,0,24.9,0c0.7,0,1.4-0.1,2-0.5c0,0.9-0.5,1.4-1.4,1.5c-0.2,0-0.4,0-0.7,0
		c-8,0-15.9,0-23.9,0C29.5,53.3,29.5,53.3,29.5,52.3z"/>
	<path class="st6" d="M56.9,44c-0.3-0.1-0.5-0.4-0.5-0.8c0-1.4,0-2.7,0-4.1c0-0.4,0.1-0.6,0.5-0.8c0.4,0.1,0.5,0.3,0.5,0.7
		c0,1.4,0,2.8,0,4.2C57.4,43.7,57.3,43.9,56.9,44z"/>
	<path class="st0" d="M10.9,26.2c0-0.2,0.1-0.3,0.1-0.5c0.8-2.6,1.7-5.3,2.5-7.9c0.1-0.4,0.3-0.7,0.7-0.7c0.5,0,0.8,0.4,0.6,1
		c-0.6,1.9-1.2,3.7-1.8,5.6c-0.3,0.9-0.6,1.8-0.8,2.7c-0.1,0.4-0.4,0.6-0.8,0.5C11.1,26.8,10.9,26.6,10.9,26.2z"/>
	<path class="st0" d="M6.3,22.7c1,0.4,1.8,0.7,2.6,1.1c0.3,0.1,0.7,0.3,1,0.4c0.4,0.2,0.6,0.4,0.4,0.8c-0.2,0.4-0.5,0.5-0.9,0.3
		c-0.2-0.1-0.5-0.2-0.7-0.3c-1.1-0.4-2.2-0.9-3.3-1.3c-0.5-0.2-0.8-0.5-0.8-1c0-0.5,0.3-0.8,0.8-1c1.3-0.5,2.5-1,3.8-1.5
		c0.1,0,0.2-0.1,0.3-0.1c0.4-0.1,0.6,0.1,0.8,0.4c0.1,0.4-0.1,0.6-0.4,0.7c-1,0.4-2,0.8-3,1.2C6.7,22.5,6.6,22.5,6.3,22.7z"/>
	<path class="st0" d="M19.7,22.7c-1.3-0.5-2.5-1-3.6-1.5c-0.3-0.1-0.6-0.3-0.5-0.7c0.1-0.4,0.4-0.6,0.8-0.4c1.4,0.6,2.9,1.1,4.3,1.7
		c0.4,0.2,0.5,0.5,0.5,0.9c0,0.4-0.2,0.7-0.5,0.9c-1.4,0.6-2.8,1.2-4.3,1.8c-0.4,0.1-0.7,0-0.8-0.4c-0.2-0.4,0.1-0.6,0.4-0.8
		C17.2,23.7,18.3,23.2,19.7,22.7z"/>
	<path class="st7" d="M14.7,32.6c1.9,0,3.9,0,5.8,0c0.4,0,0.7,0,0.8,0.5c0,0.5-0.4,0.5-0.7,0.5c-3.9,0-7.8,0-11.7,0
		c-0.4,0-0.7,0-0.8-0.5c0-0.5,0.4-0.5,0.7-0.5C10.9,32.6,12.8,32.6,14.7,32.6z"/>
	<path class="st7" d="M14,47.3c-1.7,0-3.4,0-5.1,0c-0.4,0-0.7,0-0.7-0.5c0-0.5,0.4-0.5,0.8-0.5c3.4,0,6.9,0,10.3,0
		c0.4,0,0.8,0,0.8,0.5c0,0.5-0.4,0.5-0.8,0.5C17.5,47.3,15.7,47.3,14,47.3z"/>
	<path class="st8" d="M9.3,29.2c1.3,0,2.6,0,3.8,0c0.4,0,0.7,0,0.7,0.5c0,0.5-0.4,0.5-0.7,0.5c-2.6,0-5.1,0-7.7,0
		c-0.3,0-0.7,0-0.7-0.5c0-0.5,0.4-0.5,0.7-0.5C6.8,29.2,8.1,29.2,9.3,29.2z"/>
	<path class="st8" d="M8.9,40.4c-1.2,0-2.3,0-3.5,0c-0.4,0-0.7-0.1-0.7-0.5c0-0.4,0.3-0.5,0.7-0.5c2.3,0,4.7,0,7,0
		c0.4,0,0.7,0.1,0.7,0.5c0,0.4-0.3,0.5-0.7,0.5C11.3,40.4,10.1,40.4,8.9,40.4z"/>
	<path class="st8" d="M9,49.7c1.2,0,2.3,0,3.5,0c0.4,0,0.7,0,0.7,0.5c0,0.4-0.3,0.5-0.7,0.5c-2.3,0-4.7,0-7,0c-0.3,0-0.7,0-0.7-0.5
		c0-0.5,0.4-0.5,0.7-0.5C6.7,49.7,7.8,49.7,9,49.7z"/>
	<path class="st7" d="M12.4,42.9c1.1,0,2.3,0,3.4,0c0.4,0,0.7,0,0.7,0.5c0,0.4-0.3,0.5-0.7,0.5c-2.3,0-4.6,0-6.9,0
		c-0.4,0-0.7,0-0.7-0.5c0-0.4,0.3-0.5,0.7-0.5C10,42.9,11.2,42.9,12.4,42.9z"/>
	<path class="st8" d="M17.1,40.4c-0.7,0-1.5,0-2.2,0c-0.4,0-0.7-0.1-0.7-0.5c0-0.4,0.3-0.5,0.6-0.5c1.6,0,3.1,0,4.7,0
		c0.3,0,0.6,0.1,0.6,0.5c0,0.4-0.3,0.5-0.6,0.5C18.7,40.4,17.9,40.4,17.1,40.4z"/>
	<path class="st8" d="M17.1,50.7c-0.8,0-1.5,0-2.3,0c-0.3,0-0.6-0.1-0.7-0.5c0-0.4,0.3-0.5,0.7-0.5c1.5,0,3.1,0,4.6,0
		c0.3,0,0.6,0.1,0.6,0.5c0,0.4-0.3,0.5-0.7,0.5C18.7,50.7,17.9,50.7,17.1,50.7z"/>
	<path class="st8" d="M18,29.2c0.5,0,1,0,1.5,0c0.3,0,0.6,0.1,0.6,0.5c0,0.4-0.3,0.5-0.6,0.5c-1,0-2,0-3,0c-0.3,0-0.6-0.1-0.6-0.5
		c0-0.3,0.3-0.5,0.6-0.5C17,29.2,17.5,29.2,18,29.2z"/>
	<path class="st9" d="M42.6,29.2c3,0,6,0,8.9,0c1.3,0,1.8,0.5,1.8,1.8c0,3.8,0,7.6,0,11.4c0,1.2-0.6,1.8-1.8,1.8c-6,0-11.9,0-17.9,0
		c-1.2,0-1.7-0.6-1.8-1.8c0-3.8,0-7.7,0-11.5c0-1.2,0.5-1.7,1.7-1.7C36.7,29.2,39.6,29.2,42.6,29.2z M42.6,43.2c3,0,5.9,0,8.9,0
		c0.7,0,0.9-0.1,0.9-0.8c0-0.9,0-1.7,0-2.6c0-0.3-0.1-0.5-0.4-0.7c-0.7-0.5-1.5-1-2.2-1.6c-0.3-0.2-0.4-0.1-0.7,0.1
		c-0.7,0.6-1.4,1.1-2.1,1.7c-0.4,0.3-0.7,0.3-1.1,0c-2-1.5-4.1-3-6.1-4.5c-0.3-0.3-0.6-0.3-0.9,0c-1.8,1.4-3.7,2.8-5.5,4.2
		c-0.3,0.2-0.5,0.5-0.5,0.9c0,0.8,0,1.6,0,2.4c0,0.8,0.1,0.9,1,0.9C36.8,43.2,39.7,43.2,42.6,43.2z M52.4,38.1c0-2.5,0-4.9,0-7.3
		c0-0.5-0.4-0.6-0.8-0.6c-6,0-11.9,0-17.9,0c-0.6,0-0.8,0.2-0.8,0.8c0,1.4,0,2.9,0,4.3c0,0.9,0,1.8,0,2.8c0.2-0.2,0.4-0.3,0.5-0.4
		c1.7-1.3,3.5-2.6,5.2-4c0.5-0.4,0.8-0.4,1.3,0c2,1.5,4.1,3,6.1,4.5c0.3,0.2,0.5,0.2,0.8,0c0.7-0.6,1.4-1.1,2-1.7
		c0.4-0.3,0.7-0.4,1.2,0C50.8,37,51.5,37.5,52.4,38.1z"/>
	<path class="st6" d="M42.6,27c-3,0-5.9,0-8.9,0c-1.3,0-1.8-0.5-1.8-1.8c0-2,0-4,0-6c0-1.1,0.6-1.7,1.7-1.7c6,0,12.1,0,18.1,0
		c1.1,0,1.7,0.6,1.7,1.7c0,2,0,4.1,0,6.1c0,1.1-0.6,1.7-1.7,1.7C48.6,27,45.6,27,42.6,27z M42.6,18.5c-3,0-6,0-8.9,0
		c-0.6,0-0.8,0.2-0.8,0.8c0,2,0,4,0,6c0,0.7,0.1,0.8,0.9,0.8c5.9,0,11.8,0,17.8,0c0.7,0,0.8-0.1,0.8-0.9c0-1.9,0-3.8,0-5.7
		c0-1,0-1-1-1C48.5,18.5,45.6,18.5,42.6,18.5z"/>
	<path class="st7" d="M42.6,46.3c3,0,6,0,8.9,0c0.2,0,0.4,0,0.5,0c0.2,0.1,0.4,0.2,0.4,0.5c0,0.2-0.1,0.4-0.4,0.4
		c-0.2,0-0.4,0-0.5,0c-6,0-12,0-17.9,0c-0.1,0-0.3,0-0.4,0c-0.3,0-0.5-0.2-0.5-0.5c0-0.3,0.2-0.4,0.4-0.5c0.2,0,0.3,0,0.5,0
		C36.7,46.3,39.7,46.3,42.6,46.3z"/>
	<path class="st7" d="M42.7,49.7c2.9,0,5.9,0,8.8,0c0.1,0,0.3,0,0.4,0c0.3,0,0.6,0.1,0.6,0.5c0,0.4-0.3,0.5-0.6,0.5
		c-0.1,0-0.2,0-0.3,0c-6,0-11.9,0-17.9,0c-0.2,0-0.3,0-0.5,0c-0.3,0-0.4-0.2-0.4-0.5c0-0.3,0.2-0.4,0.5-0.5c0.2,0,0.3,0,0.5,0
		C36.7,49.7,39.7,49.7,42.7,49.7z"/>
	<path class="st10" d="M29.3,12.6c-7.5,0-14.9,0-22.4,0c-0.8,0-1.2-0.2-1.2-0.7c0-0.5,0.4-0.8,1.2-0.8c14.9,0,29.8,0,44.7,0
		c0.2,0,0.5,0,0.7,0.1c0.4,0.1,0.6,0.4,0.5,0.8c-0.1,0.4-0.3,0.6-0.7,0.6c-0.2,0-0.4,0-0.5,0C44.2,12.6,36.8,12.6,29.3,12.6z"/>
	<path class="st4" d="M16.8,8.8c-0.7,0-1.3-0.6-1.3-1.3c0-0.7,0.6-1.4,1.4-1.3c0.7,0,1.3,0.7,1.3,1.3C18.1,8.2,17.5,8.8,16.8,8.8z"
		/>
	<path class="st1" d="M13.3,7.5c0,0.7-0.6,1.3-1.3,1.3c-0.7,0-1.3-0.6-1.3-1.3c0-0.7,0.6-1.4,1.4-1.4C12.7,6.1,13.3,6.7,13.3,7.5z"
		/>
	<path class="st11" d="M7.1,6.1c0.7,0,1.3,0.6,1.3,1.3c0,0.7-0.6,1.4-1.3,1.4c-0.7,0-1.3-0.6-1.3-1.3C5.8,6.7,6.4,6.1,7.1,6.1z"/>
	<path class="st12" d="M42.6,43.2c-2.9,0-5.8,0-8.8,0c-0.8,0-1-0.1-1-0.9c0-0.8,0-1.6,0-2.4c0-0.4,0.1-0.7,0.5-0.9
		c1.8-1.4,3.7-2.8,5.5-4.2c0.4-0.3,0.6-0.3,0.9,0c2,1.5,4.1,3,6.1,4.5c0.4,0.3,0.7,0.3,1.1,0c0.7-0.6,1.4-1.1,2.1-1.7
		c0.2-0.2,0.4-0.3,0.7-0.1c0.7,0.6,1.5,1.1,2.2,1.6c0.3,0.2,0.4,0.4,0.4,0.7c0,0.9,0,1.7,0,2.6c0,0.7-0.1,0.8-0.9,0.8
		C48.5,43.2,45.6,43.2,42.6,43.2z"/>
	<path class="st12" d="M52.4,38.1c-0.9-0.6-1.6-1.1-2.3-1.7c-0.4-0.3-0.8-0.3-1.2,0c-0.7,0.6-1.4,1.1-2,1.7c-0.3,0.2-0.5,0.2-0.8,0
		c-2-1.5-4.1-3-6.1-4.5c-0.5-0.4-0.8-0.3-1.3,0c-1.7,1.4-3.5,2.7-5.2,4c-0.1,0.1-0.3,0.2-0.5,0.4c0-1,0-1.9,0-2.8c0-1.4,0-2.9,0-4.3
		c0-0.6,0.2-0.8,0.8-0.8c6,0,11.9,0,17.9,0c0.4,0,0.8,0,0.8,0.6C52.4,33.2,52.4,35.6,52.4,38.1z M46.2,35.6c1.2,0,2.2-1,2.2-2.2
		c0-1.2-1-2.2-2.2-2.2c-1.2,0-2.2,1-2.2,2.2C44,34.6,44.9,35.6,46.2,35.6z"/>
	<path class="st11" d="M42.6,18.5c2.9,0,5.8,0,8.8,0c0.9,0,1,0,1,1c0,1.9,0,3.8,0,5.7c0,0.7-0.1,0.9-0.8,0.9c-5.9,0-11.8,0-17.8,0
		c-0.7,0-0.9-0.1-0.9-0.8c0-2,0-4,0-6c0-0.6,0.2-0.8,0.8-0.8C36.7,18.5,39.7,18.5,42.6,18.5z"/>
	<path class="st9" d="M46.2,35.6c-1.2,0-2.2-1-2.2-2.2c0-1.2,1-2.2,2.2-2.2c1.2,0,2.2,1,2.2,2.2C48.4,34.6,47.4,35.6,46.2,35.6z
		 M46.2,34.6c0.7,0,1.2-0.6,1.2-1.2c0-0.6-0.6-1.2-1.2-1.2c-0.6,0-1.2,0.6-1.2,1.2C45,34.1,45.5,34.6,46.2,34.6z"/>
	<path class="st12" d="M46.2,34.6c-0.7,0-1.2-0.5-1.2-1.2c0-0.6,0.6-1.2,1.2-1.2c0.6,0,1.2,0.5,1.2,1.2
		C47.4,34.1,46.9,34.6,46.2,34.6z"/>
</g>
</svg>
